<svg width="111" height="40" viewBox="0 0 111 40" fill="none" xmlns="http://www.w3.org/2000/svg">
<g clip-path="url(#clip0_19_17281)">
<path d="M31.6812 7.09077C31.6812 8.19243 30.78 9.09401 29.6783 9.09401H21.6664V3.08503H29.6783C30.78 3.08503 31.6812 3.98625 31.6812 5.0879V7.09077ZM33.684 5.0879C33.6241 2.86484 31.8213 1.08215 29.6783 1.08215H19.6636V15.1026H21.6664V11.0969H29.6783C31.9215 11.0969 33.684 9.21398 33.684 7.09077V5.0879Z" fill="#EB7504"/>
<path d="M46.8907 3.08503C47.9924 3.08503 48.8936 3.98625 48.8936 5.0879V9.09401H38.8789V5.0879C38.8789 3.98625 39.7804 3.08503 40.8817 3.08503H46.8907ZM50.8965 5.0879C50.8365 2.86484 49.0337 1.08215 46.8907 1.08215H40.8817C38.6385 1.08215 36.876 2.96506 36.876 5.0879V15.1026H38.8789V11.0969H48.8936V15.1026H50.8965V5.0879Z" fill="#EB7504"/>
<path d="M66.5528 7.09077C66.5528 8.19243 65.6515 9.09401 64.5499 9.09401H56.538V3.08503H64.5499C65.6515 3.08503 66.5528 3.98625 66.5528 5.0879V7.09077ZM68.5556 15.1026V13.6806L65.7715 10.8965C67.4342 10.3357 68.5556 8.79336 68.5556 7.09077V5.0879C68.5556 2.86484 66.653 1.08215 64.5499 1.08215H54.5352V15.1026H56.538V11.0969H63.1278L67.1336 15.1026H68.5556Z" fill="#EB7504"/>
<path d="M76.0722 3.08503H88.0898V1.08215H74.0693V15.1026H88.0898V13.0998H76.0722V9.09401H86.0869V7.09077H76.0722V3.08503Z" fill="#EB7504"/>
<path d="M94.7466 15.0288V8.83767H92.9535C92.6984 8.83767 92.5713 8.7098 92.5713 8.45405V0.445428C92.5713 0.333359 92.6072 0.237813 92.679 0.158071C92.7509 0.0786891 92.8421 0.0388184 92.9535 0.0388184C93.0655 0.0388184 93.1611 0.0786891 93.2408 0.158071C93.3202 0.237813 93.3601 0.333359 93.3601 0.445428V8.04744H95.1288C95.2408 8.04744 95.3364 8.08767 95.4161 8.16813C95.4955 8.24787 95.5354 8.34306 95.5354 8.45405V15.0288C95.5354 15.1408 95.4955 15.2328 95.4161 15.3046C95.3364 15.3765 95.2408 15.4124 95.1288 15.4124C94.8737 15.4124 94.7466 15.2845 94.7466 15.0288ZM92.5957 10.6063C92.5957 10.3517 92.7229 10.2242 92.9779 10.2242C93.2487 10.2242 93.3845 10.3517 93.3845 10.6063V16.3923C93.3845 16.6473 93.2487 16.7745 92.9779 16.7745C92.7229 16.7745 92.5957 16.6473 92.5957 16.3923V10.6063ZM95.5354 6.32618C95.5354 6.43825 95.4955 6.5302 95.4161 6.60204C95.3364 6.67388 95.2408 6.7098 95.1288 6.7098C94.8737 6.7098 94.7466 6.58192 94.7466 6.32618V2.21411C94.7466 2.10311 94.7825 2.00793 94.8543 1.92819C94.9262 1.84773 95.0174 1.8075 95.1288 1.8075C95.2408 1.8075 95.3364 1.84773 95.4161 1.92819C95.4955 2.00793 95.5354 2.10311 95.5354 2.21411V6.32618ZM94.9865 16.7745C94.8745 16.7428 94.7943 16.6717 94.7466 16.5604C94.6984 16.4483 94.6909 16.3362 94.7236 16.2242V16.2012C94.803 16.0097 94.938 15.9138 95.1288 15.9138C95.1611 15.9138 95.1852 15.9181 95.2006 15.9268C95.2168 15.9347 95.2408 15.9382 95.2724 15.9382C95.3996 15.9699 95.4872 16.0417 95.5354 16.1538C95.5831 16.2651 95.5831 16.3761 95.5354 16.4871V16.5115C95.4872 16.7033 95.3518 16.7989 95.1288 16.7989L94.9865 16.7745Z" fill="#666666"/>
<path d="M101.077 15.2443C101.077 15.4993 100.941 15.6265 100.67 15.6265C100.414 15.6265 100.287 15.4993 100.287 15.2443V8.47849C100.287 8.20765 100.414 8.07188 100.67 8.07188C100.941 8.07188 101.077 8.20765 101.077 8.47849V15.2443ZM98.5653 16.8219C98.3103 16.8219 98.1831 16.6947 98.1831 16.4397V0.469864C98.1831 0.262249 98.2787 0.134376 98.4705 0.0862434C98.4855 0.0862434 98.5014 0.0826514 98.5179 0.0747491C98.534 0.067206 98.5498 0.0632549 98.5653 0.0632549C98.709 0.0632549 98.8203 0.127192 98.9001 0.254347L108.751 16.2242C108.894 16.4476 108.854 16.6308 108.631 16.7745C108.535 16.8061 108.464 16.8219 108.416 16.8219C108.272 16.8219 108.16 16.7583 108.081 16.6308L98.9719 1.85636V16.4397C98.9719 16.5518 98.932 16.6437 98.8526 16.7156C98.7729 16.7863 98.6774 16.8219 98.5653 16.8219ZM101.674 1.83193C101.531 1.60887 101.57 1.42532 101.794 1.28165C101.842 1.25004 101.913 1.23423 102.009 1.23423C102.168 1.23423 102.28 1.28991 102.344 1.4009L108.034 10.4627V0.469864C108.034 0.357795 108.07 0.262249 108.141 0.182508C108.213 0.103126 108.305 0.0632549 108.416 0.0632549C108.528 0.0632549 108.623 0.103126 108.703 0.182508C108.783 0.262249 108.822 0.357795 108.822 0.469864V11.8262C108.822 12.0331 108.727 12.1606 108.535 12.2084C108.312 12.2084 108.16 12.1523 108.081 12.0403L101.674 1.83193ZM110.519 1.4009C110.648 1.4009 110.747 1.44113 110.818 1.52159C110.89 1.60133 110.926 1.69652 110.926 1.80751V16.4397C110.926 16.6947 110.79 16.8219 110.519 16.8219C110.264 16.8219 110.137 16.6947 110.137 16.4397V1.80751C110.137 1.69652 110.173 1.60133 110.245 1.52159C110.317 1.44113 110.408 1.4009 110.519 1.4009ZM110.4 0.875037C110.273 0.843427 110.185 0.772307 110.137 0.660956C110.089 0.548887 110.081 0.437537 110.114 0.326186H110.137C110.185 0.118571 110.32 0.0144043 110.544 0.0144043C110.575 0.0144043 110.595 0.0187146 110.603 0.0273353C110.611 0.0352377 110.631 0.0388296 110.663 0.0388296C110.934 0.15018 111.03 0.33337 110.95 0.589117L110.926 0.612105C110.878 0.803916 110.742 0.899462 110.519 0.899462L110.4 0.875037Z" fill="#666666"/>
<path d="M15.4036 11.0969C15.4036 8.87346 13.5006 7.09077 11.3975 7.09077H5.38892C4.28727 7.09077 3.38605 6.18955 3.38605 5.0879C3.38605 3.98625 4.28727 3.08503 5.38892 3.08503H11.3975C12.4992 3.08503 13.4004 3.98625 13.4004 5.0879H15.4036C15.3433 2.86484 13.5409 1.08215 11.3975 1.08215H5.38892C3.14538 1.08215 1.38281 2.96506 1.38281 5.0879C1.38281 7.35119 3.2456 9.09401 5.38892 9.09401H11.3975C12.4992 9.09401 13.4004 9.99523 13.4004 11.0969C13.4004 12.1985 12.4992 13.0998 11.3975 13.0998H5.38892C4.28727 13.0998 3.38605 12.1985 3.38605 11.0969H1.38281C1.44316 13.3602 3.20573 15.1026 5.38892 15.1026H11.3975C13.6411 15.1026 15.4036 13.2197 15.4036 11.0969Z" fill="#EB7504"/>
<path d="M7.75596 20.2243C7.75596 20.9635 8.28721 21.5181 9.02644 21.5181C9.71968 21.5181 10.2973 20.9635 10.2973 20.2243C10.2973 19.5314 9.71968 18.9768 9.02644 18.9768C8.28721 18.9768 7.75596 19.5314 7.75596 20.2243ZM17.2276 21.7491H14.8943V28.1945C14.8943 32.2836 13.2312 34.3626 9.02644 34.3626C4.82205 34.3626 3.15862 32.2836 3.15862 28.1945V23.8051H0.848633V28.1945C0.848633 34.1316 4.08283 36.5573 9.02644 36.5573C13.9704 36.5573 17.2276 34.1316 17.2276 28.1945V21.7491Z" fill="#666666"/>
<path d="M21.8689 17.4984H19.5356V33.4154H21.8689V17.4984ZM23.0701 38.775H21.1297C19.7202 38.775 19.6509 37.8971 19.6509 37.5505C19.6509 37.2042 19.7202 36.3264 21.1297 36.3264C21.5223 36.3264 22.0535 36.4417 22.4232 36.5803V35.3792C22.0072 35.2175 21.476 35.1019 21.014 35.1019C19.3739 35.1019 18.3574 36.072 18.3574 37.5505C18.3574 39.006 19.3969 39.9995 21.037 39.9995H23.0701V38.775Z" fill="#666666"/>
<path d="M39.6806 31.2438C38.7797 31.2438 37.9712 31.1285 37.3706 30.8742V21.8185L35.0603 21.9571V33.3925C35.0603 35.2405 34.0671 35.9334 32.242 35.9334C30.9019 35.9334 29.7237 35.7258 29.7237 35.7258L29.3081 37.8048C29.3081 37.8048 30.8559 38.1281 32.4037 38.1281C34.6906 38.1281 37.3706 37.0886 37.3706 33.3925V33.1845C38.0865 33.3461 38.872 33.4155 39.6806 33.4155H39.9116V31.2438H39.6806Z" fill="#EB7504"/>
<path d="M39.4487 31.2438V33.4155H41.7587V31.2438H39.4487Z" fill="#EB7504"/>
<path d="M50.6069 31.2437C49.9136 31.2437 49.2901 31.1744 48.7588 31.0361C49.1977 30.2735 49.4517 29.3263 49.4517 28.1945V21.7028H47.1184V28.1945C47.1184 30.1812 46.5641 31.2437 43.2606 31.2437H41.2969V33.4154H43.6069C44.9007 33.4154 46.0095 33.1615 46.9104 32.7225C47.9503 33.2304 49.2671 33.4154 50.6069 33.4154H50.8378V31.2437H50.6069ZM44.4847 35.1482C43.7455 35.1482 43.2143 35.7024 43.2143 36.3956C43.2143 37.1349 43.7455 37.6891 44.4847 37.6891C45.178 37.6891 45.7556 37.1349 45.7556 36.3956C45.7556 35.7024 45.178 35.1482 44.4847 35.1482ZM47.4186 35.1482C46.6794 35.1482 46.1482 35.7024 46.1482 36.3956C46.1482 37.1349 46.6794 37.6891 47.4186 37.6891C48.1119 37.6891 48.6895 37.1349 48.6895 36.3956C48.6895 35.7024 48.1119 35.1482 47.4186 35.1482Z" fill="#EB7504"/>
<path d="M59.6845 31.2437C58.9913 31.2437 58.3677 31.1744 57.8364 31.0361C58.2754 30.2735 58.5293 29.3263 58.5293 28.1945V21.7028H56.196V28.1945C56.196 30.1812 55.6418 31.2437 52.3382 31.2437H50.3745V33.4154H52.6845C53.9783 33.4154 55.0872 33.1615 55.988 32.7225C57.0279 33.2304 58.3447 33.4154 59.6845 33.4154H59.9155V31.2437H59.6845ZM55.0412 35.1482C54.3016 35.1482 53.7703 35.7024 53.7703 36.3956C53.7703 37.1349 54.3016 37.6891 55.0412 37.6891C55.7341 37.6891 56.3117 37.1349 56.3117 36.3956C56.3117 35.7024 55.7341 35.1482 55.0412 35.1482Z" fill="#EB7504"/>
<path d="M59.4521 31.2438V33.4155H61.7621V31.2438H59.4521Z" fill="#EB7504"/>
<path d="M85.4415 28.1018C85.4415 30.0889 84.8872 31.2207 82.2302 31.2207C81.2834 31.2207 79.7586 30.9204 78.5805 30.4815C78.8574 29.8116 78.9961 29.003 78.9961 28.1018V21.7028H76.6627V28.1018C76.6627 30.0889 76.1085 31.2207 73.4519 31.2207C72.366 31.2207 70.6566 30.8281 69.4551 30.2965V21.7028H67.1218V28.1945C67.1218 30.1812 66.5675 31.2437 63.264 31.2437H61.3003V33.4154H63.6103C65.551 33.3924 67.0988 32.8608 68.1153 31.8676C70.4716 33.0458 72.1351 33.4154 73.7058 33.4154C75.2769 33.4154 76.5704 32.9535 77.4946 32.0986C78.4878 32.6069 80.7058 33.4154 82.5075 33.4154C85.7651 33.4154 87.7748 31.498 87.7748 28.1018V21.7028H85.4648L85.4415 28.1018Z" fill="#EB7504"/>
</g>
<defs>
<clipPath id="clip0_19_17281">
<rect width="110.207" height="40" fill="white" transform="translate(0.792969)"/>
</clipPath>
</defs>
</svg>
