<svg xmlns="http://www.w3.org/2000/svg" version="1.1" xmlns:xlink="http://www.w3.org/1999/xlink" width="512" height="512" x="0" y="0" viewBox="0 0 64 64" style="enable-background:new 0 0 512 512" xml:space="preserve"><g><path d="M48 41h-2.594a13.866 13.866 0 0 0-1.1-2.649l1.836-1.836a1 1 0 0 0-1.414-1.415l-2.379 2.378a1 1 0 0 0-.144 1.233 11.9 11.9 0 0 1 1.46 3.518 1 1 0 0 0 .973.77H47v4h-2.362a1 1 0 0 0-.973.77 11.9 11.9 0 0 1-1.46 3.518 1 1 0 0 0 .144 1.233l1.672 1.671-2.829 2.829-1.671-1.67a1 1 0 0 0-1.233-.144 11.965 11.965 0 0 1-3.518 1.46 1 1 0 0 0-.77.973V60h-4v-2.361a1 1 0 0 0-.77-.973 11.965 11.965 0 0 1-3.518-1.46 1 1 0 0 0-1.233.144l-1.671 1.671-2.829-2.829 1.672-1.671a1 1 0 0 0 .144-1.233 11.9 11.9 0 0 1-1.46-3.518 1 1 0 0 0-.973-.77H17v-1.252a1 1 0 0 0-2 0V48a1 1 0 0 0 1 1h2.594a13.866 13.866 0 0 0 1.1 2.649l-1.836 1.836a1 1 0 0 0 0 1.414l4.242 4.243a1 1 0 0 0 1.414 0l1.836-1.835A13.916 13.916 0 0 0 28 58.406V61a1 1 0 0 0 1 1h6a1 1 0 0 0 1-1v-2.594a13.916 13.916 0 0 0 2.649-1.1l1.836 1.835a1 1 0 0 0 1.414 0l4.243-4.241a1 1 0 0 0 0-1.414l-1.836-1.836a13.866 13.866 0 0 0 1.1-2.65H48a1 1 0 0 0 1-1v-6a1 1 0 0 0-1-1ZM17.068 21.892a3 3 0 0 0 2.593-4.5 3 3 0 1 0-2.592 4.5Zm-.506-3.866a1 1 0 1 1-.366 1.367 1 1 0 0 1 .366-1.367Z" fill="#EB7504" opacity="1" data-original="#000000"></path><path d="M61.9 11.224A2.98 2.98 0 0 0 60.5 9.4l-12.124-7a3 3 0 0 0-4.1 1.1l-4.866 8.428a1 1 0 0 0 1.733 1l1.365-2.366 13.856 8-5.758 9.973a23.215 23.215 0 0 0-13.856-8l2.393-4.142a1 1 0 1 0-1.733-1l-3.133 5.427a1 1 0 0 0 .761 1.494 21.091 21.091 0 0 1 4.7 1.057L36 29.837V29a1 1 0 0 0-1-1h-6a1 1 0 0 0-1 1v.837l-3.733-6.466a21.091 21.091 0 0 1 4.7-1.057 1 1 0 0 0 .761-1.494l-10-17.32a3 3 0 0 0-4.1-1.1L3.5 9.4a3 3 0 0 0-1.1 4.1l5.513 9.549a1 1 0 0 0 1.732-1l-2.01-3.487 11.693-6.75a1 1 0 0 0-1-1.733L6.635 16.83l-1-1.732 13.856-8 7.758 13.437a23.215 23.215 0 0 0-13.856 8l-1.746-3.022a1 1 0 1 0-1.732 1L12.4 30.82a1 1 0 0 0 .814.5h.053a1 1 0 0 0 .808-.412 21.094 21.094 0 0 1 3.261-3.538l3.02 5.23-2.5 2.5a1 1 0 0 0 0 1.414l1.836 1.836A13.866 13.866 0 0 0 18.594 41H16a1 1 0 0 0 0 2h3.362a1 1 0 0 0 .973-.77 11.9 11.9 0 0 1 1.46-3.518 1 1 0 0 0-.144-1.233l-1.672-1.671 1.414-1.415 2 3.471a3.986 3.986 0 0 1 .324 3.239l-2.578 4.466a1 1 0 0 0 .366 1.367l2.04 1.177a9.011 9.011 0 0 0 3.645 4.4 1 1 0 0 0 1.055-1.7 7 7 0 0 1-2.936-3.7 1.008 1.008 0 0 0-.448-.547l-1.49-.86 2-3.464L27.2 43.29a4.992 4.992 0 0 0 8.475 4.893l1.825 1.056-2 3.464-1.49-.86a1.008 1.008 0 0 0-.7-.114 6.9 6.9 0 0 1-1.724.126 1.015 1.015 0 0 0-1.046.953 1 1 0 0 0 .952 1.046 9.079 9.079 0 0 0 1.832-.1l2.04 1.178a1.014 1.014 0 0 0 .5.133 1 1 0 0 0 .866-.5l3.8-6.579a5.974 5.974 0 0 0 .393-5.183l-.581-1.488a3.974 3.974 0 0 1 .262-3.455l4.659-8.07a1 1 0 0 0-1.733-1l-4.658 8.07a5.969 5.969 0 0 0-.393 5.184l.581 1.487a3.981 3.981 0 0 1-.26 3.459l-.3.517-1.82-1.051a5 5 0 0 0-8.485-4.9l-1.82-1.05.3-.517a3.99 3.99 0 0 1 2.863-1.954l1.578-.241a5.969 5.969 0 0 0 4.293-2.931l6.2-10.743a21.186 21.186 0 0 1 8.313 6.787 1 1 0 0 0 .808.412h.053a1 1 0 0 0 .814-.5L61.6 13.5a2.973 2.973 0 0 0 .3-2.276ZM18.491 5.366l-13.856 8-.5-.867a1 1 0 0 1 .365-1.364l12.125-7a1 1 0 0 1 1.366.365l.5.866Zm14.946 36.909a3 3 0 1 1-4.1 1.1 2.981 2.981 0 0 1 4.1-1.1Zm-7.795-4.25a5.932 5.932 0 0 0-.513-1.161l-6.2-10.743a21.218 21.218 0 0 1 3.463-2l6.2 10.743a5.942 5.942 0 0 0 .9 1.156l-.259.04a5.956 5.956 0 0 0-3.591 1.965Zm6.352-2.6a4 4 0 0 1-1.669-1.556l-.525-.91a1 1 0 0 0 .2-.593V30h4v2.361a.993.993 0 0 0 .2.594l-.526.909a3.97 3.97 0 0 1-1.68 1.556ZM46.616 4.034a1.006 1.006 0 0 1 .759.1l12.125 7a1 1 0 0 1 .365 1.365l-.5.866-13.856-8 .5-.866a1 1 0 0 1 .607-.465Zm-3.107 4.8 1-1.732 13.856 8-1 1.732Z" fill="#EB7504" opacity="1" data-original="#000000"></path><path d="M46.932 21.893a3 3 0 1 0-2.592-4.5 3 3 0 0 0 2.593 4.5Zm-.86-3.5a1 1 0 1 1 .366 1.366 1 1 0 0 1-.366-1.366Z" fill="#EB7504" opacity="1" data-original="#000000"></path></g></svg>