<svg xmlns="http://www.w3.org/2000/svg" version="1.1" xmlns:xlink="http://www.w3.org/1999/xlink" width="512" height="512" x="0" y="0" viewBox="0 0 256 256" style="enable-background:new 0 0 512 512" xml:space="preserve"><g><path d="M196.51 28.571c-18.544-10.707-40.15-13.551-60.834-8.009-20.685 5.543-37.973 18.809-48.68 37.354a81.689 81.689 0 0 0-3.595 6.98H55.763v5.501l53.756.041c8.025-13.364 23.135-26.599 46.894-26.877 24.03 0 46.083 16.061 52.591 40.352 7.769 28.992-9.498 58.898-38.49 66.667-20.662 5.538-41.787-1.645-55.034-16.724h-7.08c11.226 14.998 29.07 24.086 48.04 24.086a59.83 59.83 0 0 0 15.497-2.049c31.922-8.554 50.934-41.483 42.38-73.404-8.553-31.922-41.486-50.931-73.404-42.38-14.675 3.933-26.618 13.019-34.412 24.788H89.496a76.297 76.297 0 0 1 2.263-4.231c9.972-17.274 26.075-29.63 45.34-34.791 24.317-6.56 45.157.817 56.662 7.46 35.657 20.586 47.918 66.344 27.331 102.002-9.972 17.273-26.075 29.629-45.34 34.79-19.266 5.162-39.389 2.513-56.662-7.459-12.049-6.956-21.7-16.898-28.192-28.812h-6.204a79.35 79.35 0 0 0 7.125 11.682l-4.42 7.654a13.497 13.497 0 0 0-1.356 10.308 13.478 13.478 0 0 0 5.92 7.986L68.277 212.51c-4.315 7.474-1.745 17.064 5.728 21.379l5.586 3.225a15.56 15.56 0 0 0 11.876 1.563 15.548 15.548 0 0 0 9.503-7.292l23.682-41.018a13.48 13.48 0 0 0 6.34 1.597c1.18 0 2.368-.155 3.539-.469a13.495 13.495 0 0 0 8.248-6.33l4.333-7.503c3.044.356 6.108.544 9.183.544 6.963 0 13.974-.915 20.88-2.766 20.685-5.542 37.973-18.808 48.68-37.353 22.103-38.284 8.94-87.412-29.344-109.516zM96.208 228.635a10.082 10.082 0 0 1-6.164 4.73 10.077 10.077 0 0 1-7.702-1.014l-5.586-3.226c-4.847-2.798-6.513-9.018-3.715-13.865l23.674-41.004 23.167 13.375zm41.81-46.22a8.034 8.034 0 0 1-4.91 3.767 8.026 8.026 0 0 1-6.135-.807l-31.85-18.389a8.032 8.032 0 0 1-3.767-4.909 8.034 8.034 0 0 1 .808-6.135l3.334-5.775c5.837 6.807 12.848 12.648 20.843 17.264 7.864 4.54 16.279 7.66 24.94 9.333zM33.75 64.901v-.004h-8.696v5.5h8.697zM49.066 64.901v-.004H40.37v5.5h8.697zM45.415 84.22v5.494h8.697v-5.5h-8.697z" fill="#FFFFFF" opacity="1" data-original="#000000"></path><path d="M76.674 89.714h54.306v-5.5H103.78a54.654 54.654 0 0 1 2.93-8.313h-5.97a60.087 60.087 0 0 0-2.63 8.313H83.003a73.923 73.923 0 0 1 2.07-8.313h-5.744a79.28 79.28 0 0 0-1.919 8.313zM69.427 84.214H60.73v5.5h8.697V84.22zM17.884 103.537v5.496h8.697v-5.5h-8.697zM105.65 103.533h-3.378a53.98 53.98 0 0 1-.21-8.313h-5.508a59.405 59.405 0 0 0 .191 8.313H81.943a74.108 74.108 0 0 1-.17-8.313h-5.508a79.585 79.585 0 0 0 .16 8.313H48.593v5.5h57.057zM41.897 103.537v-.004h-8.698v5.5h8.698zM38.247 122.856v5.495h8.697v-5.5h-8.697zM68.956 122.856v5.495h53.757v-5.5h-14.721a54.286 54.286 0 0 1-3.426-8.314H98.83a60.063 60.063 0 0 0 3.054 8.314H86.007c-.635-1.81-2.182-7.382-2.394-8.314h-5.634c.298 1.408 1.785 6.962 2.224 8.314H68.956zM53.563 122.856v5.495h8.696v-5.5h-8.697z" fill="#FFFFFF" opacity="1" data-original="#000000"></path></g></svg>