<svg xmlns="http://www.w3.org/2000/svg" version="1.1" xmlns:xlink="http://www.w3.org/1999/xlink" width="512" height="512" x="0" y="0" viewBox="0 0 512.004 512.004" style="enable-background:new 0 0 512 512" xml:space="preserve" class=""><g><path d="m508.674 421.218-51.338-34.359 7.98-15.243a7.496 7.496 0 0 0-.939-8.344c-.612-.719-14.506-16.743-46.168-32.959 11.325-24.654 20.44-51.615 27.248-80.662 20.488-87.412 13.1-162.467 12.775-165.619a7.497 7.497 0 0 0-6.689-6.69c-59.676-6.156-108.315-26.058-138.608-41.668-32.93-16.97-51.941-32.694-52.125-32.847a7.5 7.5 0 0 0-9.617 0c-.749.626-76.167 62.697-190.734 74.516a7.498 7.498 0 0 0-6.689 6.69c-.146 1.415-3.523 35.203.281 83.9a7.49 7.49 0 0 0 8.058 6.891 7.498 7.498 0 0 0 6.892-8.058c-2.782-35.621-1.567-63.497-.787-75.2 59.369-7.112 107.689-27.039 138.157-42.786 24.832-12.834 41.84-24.805 49.63-30.679 7.788 5.874 24.798 17.845 49.629 30.679 30.469 15.747 78.787 35.673 138.155 42.786 1.289 19.439 3.745 83.533-12.928 154.665-7.223 30.815-17.114 59.146-29.539 84.718-.348.716-.704 1.422-1.056 2.132a343.691 343.691 0 0 1-3.663 7.2 336.924 336.924 0 0 1-4.696 8.621 337.808 337.808 0 0 1-1.969 3.457 328.506 328.506 0 0 1-2.019 3.43c-.489.821-.985 1.633-1.48 2.446a308.847 308.847 0 0 1-4.89 7.779c-.122.187-.24.377-.362.564a305.558 305.558 0 0 1-3.765 5.607 288.755 288.755 0 0 1-16.47 21.767l-.099.12a282.187 282.187 0 0 1-3.383 3.965 282.926 282.926 0 0 1-2.71 3.059c-.183.204-.364.412-.547.615a269.909 269.909 0 0 1-3.106 3.383l-.16.172c-26.466 28.298-58.266 50.143-94.941 65.172-35.908-14.727-76.107-39.926-110.203-82.992l-.327-.415a279.403 279.403 0 0 1-2.049-2.64c-12.437-16.272-23.475-34.3-32.954-53.88a7.508 7.508 0 0 0-.78-1.271c-17.174-35.737-30.509-79.345-37.553-132.585a7.498 7.498 0 0 0-14.866 1.967c6.463 48.846 18.728 92.993 36.525 131.691-31.665 16.218-45.558 32.242-46.171 32.96a7.501 7.501 0 0 0-.94 8.344l7.98 15.243-51.337 34.359a7.5 7.5 0 0 0 .558 12.801l41.945 23.07v46.335a7.5 7.5 0 0 0 11.31 6.456l83.31-49.183c.052-.031.098-.066.149-.098a8.312 8.312 0 0 0 .684-.481c.068-.054.137-.107.203-.163.176-.149.343-.305.503-.467.026-.026.053-.049.078-.076.194-.203.374-.416.542-.637l.018-.021c.013-.018.023-.038.036-.056.172-.233.328-.474.471-.724.03-.053.062-.105.091-.158.145-.268.276-.542.387-.824.019-.048.034-.097.052-.146.09-.244.167-.492.232-.743.017-.067.036-.133.051-.2.067-.293.118-.588.15-.888.004-.04.005-.08.008-.121.024-.27.032-.541.026-.813a7.546 7.546 0 0 0-.099-1.107l-.014-.064a7.38 7.38 0 0 0-.27-1.044 7.44 7.44 0 0 0-.345-.869l-10.271-21.433c6.165-3.073 13.36-6.224 21.64-9.192 27.675 28.248 60.589 50.051 98.461 65.116a7.498 7.498 0 0 0 5.542 0c37.805-15.039 70.77-36.862 98.464-65.114 8.279 2.968 15.473 6.118 21.637 9.191l-10.271 21.433a7.455 7.455 0 0 0-.412 1.084 7.396 7.396 0 0 0-.203.831c-.004.021-.01.042-.013.063a7.546 7.546 0 0 0-.095.921c-.003.063-.003.125-.004.187-.005.272.002.543.026.813.004.04.004.081.008.121.031.299.083.595.15.887.015.068.034.134.052.201.064.251.141.498.231.741.018.049.033.099.052.148.111.282.241.555.386.822.029.054.061.107.092.16.143.248.298.49.469.721.014.018.023.039.037.057l.018.021c.168.221.348.434.542.637.025.027.052.05.078.076.159.162.327.318.503.467.066.056.135.109.203.163a7.634 7.634 0 0 0 .683.481c.051.032.097.067.149.098l83.309 49.183a7.488 7.488 0 0 0 7.53.055 7.5 7.5 0 0 0 3.78-6.511V457.09l41.945-23.07a7.499 7.499 0 0 0 3.878-6.244 7.514 7.514 0 0 0-3.325-6.558zM60.828 490.289v-37.635a7.503 7.503 0 0 0-3.886-6.569l-35.026-19.264 39.746-26.599 26.371 50.373c.145.277.307.542.483.795.069.099.15.188.223.283.116.151.23.305.357.445.126.14.264.267.399.397.085.081.165.167.254.243.166.145.343.277.522.407.065.047.128.097.194.142.2.136.409.258.622.375.05.027.099.056.15.082a7.28 7.28 0 0 0 .824.363 7.589 7.589 0 0 0 .873.265c.163.039.322.089.489.117l21.758 3.693-54.353 32.087zm50.872-47.888c.175-.128.359-.259.54-.389.388-.279.775-.557 1.183-.843.25-.176.517-.356.775-.534.418-.288.832-.575 1.269-.87.264-.177.545-.36.817-.54.459-.305.913-.607 1.393-.918.172-.111.358-.225.533-.337.54-.346 1.085-.692 1.65-1.044l.133-.081 3.632 7.579-11.925-2.023zm7.884-22.676c-.021.012-.044.018-.065.03l-.189.106-.002.001-.075.042a158.331 158.331 0 0 0-2.652 1.502c-.334.193-.669.385-.996.577l-.11.065-.151.089c-.901.53-1.773 1.054-2.625 1.576l-.397.242c-.517.319-1.02.634-1.519.949l-.317.201-.038.024c-5.766 3.665-10.304 7.061-13.672 9.84l-24.53-46.855-9.746-18.622c5.459-5.151 17.575-15.272 37.837-25.683a346.17 346.17 0 0 0 2.359 4.535c.404.763.817 1.517 1.226 2.276a337.186 337.186 0 0 0 3.148 5.717c.237.421.462.853.7 1.272 8.01 14.075 16.843 27.203 26.457 39.392l.667.845c.781.983 1.566 1.961 2.358 2.931.407.499.817.994 1.226 1.49.697.843 1.392 1.687 2.095 2.52a283.727 283.727 0 0 0 3.172 3.697c-9.354 3.645-17.363 7.495-24.161 11.241zm248.678-11.242c.013-.02.03-.04.047-.059.647-.739 1.283-1.49 1.921-2.236.389-.455.781-.904 1.168-1.361a307.106 307.106 0 0 0 2.905-3.493l.098-.119a301.29 301.29 0 0 0 13.539-17.84c.574-.818 1.126-1.659 1.692-2.484a290.621 290.621 0 0 0 2.055-3.017 303.124 303.124 0 0 0 4.058-6.224 326.952 326.952 0 0 0 9.63-16.103c.449-.803.901-1.603 1.345-2.412a344.002 344.002 0 0 0 4.215-7.916c.243-.47.491-.936.732-1.408 20.119 10.353 32.324 20.532 37.828 25.699l-34.269 65.459c-3.369-2.779-7.907-6.176-13.675-9.841l-.035-.023-.316-.201c-.498-.315-1.001-.63-1.517-.948l-.499-.303c-.82-.502-1.659-1.006-2.525-1.516l-.151-.089-.11-.065c-.327-.192-.663-.384-.996-.577-.562-.324-1.131-.648-1.711-.975-.312-.175-.624-.351-.941-.527l-.075-.042-.001-.001-.189-.106c-.021-.012-.044-.019-.065-.031-6.796-3.744-14.804-7.595-24.158-11.241zm22.27 31.455 1.482-3.091.134.082c.564.35 1.105.695 1.642 1.039.177.113.366.229.541.342.482.311.937.615 1.397.921.269.178.549.36.811.536.438.295.853.583 1.272.872.258.178.524.358.774.534.4.281.78.553 1.161.827.188.135.38.272.563.405l-11.923 2.024 2.146-4.491zm64.529 6.147a7.501 7.501 0 0 0-3.885 6.57v37.635l-54.352-32.089 21.758-3.693c.079-.013.154-.04.232-.056a7.831 7.831 0 0 0 .938-.253c.174-.06.345-.126.513-.199.125-.053.249-.107.371-.167.165-.081.324-.171.482-.264.115-.067.23-.132.34-.205a7.91 7.91 0 0 0 .458-.336c.099-.077.201-.149.295-.231a7.48 7.48 0 0 0 .446-.427c.077-.078.159-.15.232-.232.169-.187.325-.388.475-.593.038-.052.082-.098.118-.151.178-.255.341-.523.487-.802l26.372-50.373 39.745 26.599-35.025 19.267z" fill="#EB7504" opacity="1" data-original="#000000"></path><path d="M411.834 121.848a7.498 7.498 0 0 0-6.689-6.69c-86.497-8.923-143.771-55.89-144.334-56.359a7.505 7.505 0 0 0-9.612-.004c-.568.474-57.842 47.441-144.34 56.363a7.498 7.498 0 0 0-6.689 6.69c-.143 1.39-3.445 34.561 1.706 79.853 4.773 41.957 18.074 102.462 54.331 152.437a7.488 7.488 0 0 0 6.074 3.095 7.497 7.497 0 0 0 6.062-11.902c-34.267-47.233-46.934-104.902-51.527-144.963-3.766-32.849-2.871-59.582-2.177-71.005 74.235-9.23 125.832-43.734 141.362-55.312 15.531 11.579 67.123 46.085 141.367 55.312.513 8.348 1.134 24.879-.056 46.037a7.497 7.497 0 0 0 7.065 7.906c4.146.224 7.676-2.928 7.907-7.063 1.798-31.99-.357-53.494-.45-54.395zM402.975 198.767a7.499 7.499 0 0 0-8.379 6.496c-16.689 131.869-83.947 186.559-138.597 209.194-26.409-10.927-49.568-26.611-68.869-46.646a7.498 7.498 0 0 0-10.799 10.404c21.466 22.281 47.338 39.541 76.899 51.3a7.498 7.498 0 0 0 5.542 0c48.338-19.229 86.17-52.708 112.444-99.507 19.453-34.649 32.323-75.985 38.256-122.862a7.498 7.498 0 0 0-6.497-8.379z" fill="#EB7504" opacity="1" data-original="#000000"></path><path d="M339.838 180.565c-10.24-10.239-26.898-10.237-37.138.001l-66.781 66.781-24.106-24.107c-10.24-10.239-26.898-10.238-37.138.001-10.238 10.24-10.238 26.899 0 37.138l42.677 42.676c4.958 4.96 11.553 7.69 18.567 7.69 7.016 0 13.61-2.732 18.569-7.691l85.351-85.35c10.238-10.239 10.238-26.899-.001-37.139zm-10.601 26.536-85.351 85.35c-2.127 2.127-4.956 3.299-7.965 3.299s-5.838-1.172-7.965-3.299l-42.675-42.675c-4.393-4.393-4.393-11.539-.002-15.932a11.231 11.231 0 0 1 7.967-3.294c2.884 0 5.769 1.099 7.965 3.294l29.407 29.409a7.495 7.495 0 0 0 10.604 0l72.082-72.083c4.394-4.394 11.539-4.395 15.933-.002 4.392 4.394 4.392 11.541 0 15.933z" fill="#EB7504" opacity="1" data-original="#000000"></path></g></svg>